<svg width="24" height="24" viewBox="0 0 24 24" fill="currentColor" xmlns="http://www.w3.org/2000/svg">
  <path d="M20.447 20.452h-3.554v-5.569c0-1.328-.475-2.236-1.986-2.236-1.081 0-1.722.722-2.004 1.418-.103.249-.129.597-.129.946v5.441h-3.554s.05-8.736 0-9.646h3.554v1.348c.429-.645 1.196-1.564 2.913-1.564 2.126 0 3.72 1.39 3.72 4.38v5.482zM5.337 8.855c-1.144 0-1.915-.759-1.915-1.71 0-.955.77-1.71 1.864-1.71.094 0 .188.006.281.018 1.144 0 1.916.759 1.916 1.71 0 .951-.771 1.71-1.865 1.71zm1.6 11.597H3.62V9.021h3.317v11.431zM22.225 0H1.771C.792 0 0 .774 0 1.729v20.542C0 23.227.792 24 1.771 24h20.451C23.2 24 24 23.227 24 22.271V1.729C24 .774 23.2 0 22.225 0z"/>
</svg>